<svg xmlns="http://www.w3.org/2000/svg" xmlns:xlink="http://www.w3.org/1999/xlink" width="283.328" height="85.443" viewBox="0 0 283.328 85.443">
  <defs>
    <clipPath id="clip-path">
      <rect id="Rect치ngulo_2" data-name="Rect치ngulo 2" width="178.328" height="85.443" fill="#fff"/>
    </clipPath>
  </defs>
  <g id="Grupo_12" data-name="Grupo 12" transform="translate(-128 -68)">
    <g id="Grupo_5" data-name="Grupo 5">
      <g id="Grupo_1" data-name="Grupo 1" transform="translate(128 68)">
        <rect id="Rect치ngulo_1" data-name="Rect치ngulo 1" width="21.165" height="19.841" transform="translate(64.34)" fill="#fff"/>
        <path id="Trazado_1" data-name="Trazado 1" d="M0,.426V85.64H85.328V33.915h-21.1V65.8H19.612V51.462H51.381V33.915H19.612V19.945H51.151V.426Z" transform="translate(0 -0.196)" fill="#fff"/>
      </g>
      <g id="Grupo_3" data-name="Grupo 3" transform="translate(233 68)">
        <g id="Grupo_2" data-name="Grupo 2" clip-path="url(#clip-path)">
          <path id="Trazado_2" data-name="Trazado 2" d="M18.649,21.142H10.672V15.984h3.4c.138.55.378,1.685.378,1.685H18.03V9.382H14.454l-.412,1.994h-3.37V6.253h7.633c.241.757.688,2.407.688,2.407l3.885-.1V1.164H3.073c0,1.547.035,2.613.138,3.886l2.2.516V21.829q-1.083.207-2.167.516a32.922,32.922,0,0,0-.172,3.885H23.257V18.941l-4.023-.1s-.378,1.582-.585,2.3" transform="translate(-1.893 -0.717)" fill="#fff"/>
          <path id="Trazado_3" data-name="Trazado 3" d="M126.114,8.572a3.156,3.156,0,0,0,3.129-3.094,3.1,3.1,0,0,0-3.129-3.061,3.016,3.016,0,0,0-3.163,3.095,3.027,3.027,0,0,0,3.163,3.06" transform="translate(-75.73 -1.489)" fill="#fff"/>
          <path id="Trazado_4" data-name="Trazado 4" d="M83.834,21.73l-.168,3.775,9.107.008L92.6,21.628l-1.967-.516V9.146h0V8.433h-8.1V8.424H79.3V6.43c0-1.238.584-1.719,1.685-1.719a3.148,3.148,0,0,1,1.375.275,28.135,28.135,0,0,1,1-4.058A8.688,8.688,0,0,0,79.4,0C76,0,74.245,1.891,74.245,5.6v2.82h-1.96v.008h-.874V8.424H68.179V6.43c0-1.238.585-1.719,1.685-1.719a3.15,3.15,0,0,1,1.376.275,28.034,28.034,0,0,1,1-4.058A8.69,8.69,0,0,0,68.283,0c-3.4,0-5.158,1.891-5.158,5.6v2.82h-1.96v.008H61.1v4.447H62.98l.145.015v8.218l-1.513.516-.172,3.885h9.319l-.172-3.885-2.407-.516V12.894l.239-.015H74.1l.145.015v8.218l-1.513.516-.172,3.885h9.319l-.172-3.885L79.3,21.112V12.894l.239-.015h5.524l.517.152v8.08Z" transform="translate(-37.632 0)" fill="#fff"/>
          <path id="Trazado_5" data-name="Trazado 5" d="M156.735,39.01a9.977,9.977,0,0,0,7.462-2.716,18.054,18.054,0,0,1-2.476-3.1,6.773,6.773,0,0,1-4.333,1.342,3.935,3.935,0,0,1-4.229-4.161c0-2.544,1.479-4.3,3.886-4.3a6.777,6.777,0,0,1,2.476.378c.137.55.275,1.1.447,1.65,1.307-.1,2.476-.1,3.885-.1-.034-.55-.034-1.1-.034-1.65s0-1.1.034-1.65h0c-1.651-2.166-3.748-3.129-7.014-3.129-5.4,0-8.871,3.644-8.871,9.009,0,4.951,3.438,8.424,8.768,8.424" transform="translate(-91.138 -13.29)" fill="#fff"/>
          <path id="Trazado_6" data-name="Trazado 6" d="M200.594,8.572a3.156,3.156,0,0,0,3.129-3.094,3.1,3.1,0,0,0-3.129-3.061,3.016,3.016,0,0,0-3.163,3.095,3.027,3.027,0,0,0,3.163,3.06" transform="translate(-121.605 -1.489)" fill="#fff"/>
          <path id="Trazado_7" data-name="Trazado 7" d="M195.634,35.441l-.172,3.885h8.424l-.172-3.885-1.547-.516v-12.5h-6.588V26.4s1.052.31,1.534.447v8.08Z" transform="translate(-120.392 -13.813)" fill="#fff"/>
          <path id="Trazado_8" data-name="Trazado 8" d="M231.035,39.01a9.977,9.977,0,0,0,7.462-2.716,18.051,18.051,0,0,1-2.476-3.1,7.124,7.124,0,0,1-4.573,1.444,4.077,4.077,0,0,1-4.126-2.682H238.84a7.519,7.519,0,0,0,.24-1.892c0-5.054-3.335-8.492-8.046-8.492a8.426,8.426,0,0,0-8.768,8.665c0,5.3,3.438,8.768,8.768,8.768M231,25.978c2.167,0,3.232,1.375,3.3,2.51h-7.049c0-.86,1-2.51,3.748-2.51" transform="translate(-136.902 -13.29)" fill="#fff"/>
          <path id="Trazado_9" data-name="Trazado 9" d="M272.224,34.918l-.172,3.885h6.739V31.686c0-3.473.963-5.364,3.61-5.364,3.026,0,3.645,2.407,3.645,4.917,0,1.031-.069,2.2-.1,3.163l-1.272.516L284.5,38.8l7.53.516s.24-2.338.24-3.886c-.378-.137-.722-.275-1.1-.447.069-1.513.138-3.4.138-4.951,0-4.848-2.372-8.459-7.6-8.459a7.893,7.893,0,0,0-4.917,1.616V21.68l-6.739.24.137,3.954,1.547.447V34.4Z" transform="translate(-167.566 -13.29)" fill="#fff"/>
          <path id="Trazado_10" data-name="Trazado 10" d="M338.377,39.01a9.977,9.977,0,0,0,7.462-2.716,18.053,18.053,0,0,1-2.476-3.1,6.773,6.773,0,0,1-4.333,1.342,3.935,3.935,0,0,1-4.229-4.161c0-2.544,1.479-4.3,3.886-4.3a6.777,6.777,0,0,1,2.476.378c.137.55.275,1.1.447,1.65,1.307-.1,2.476-.1,3.885-.1-.034-.55-.034-1.1-.034-1.65s0-1.1.035-1.65h0c-1.651-2.166-3.748-3.129-7.014-3.129-5.4,0-8.871,3.644-8.871,9.009,0,4.951,3.438,8.424,8.768,8.424" transform="translate(-203.018 -13.29)" fill="#fff"/>
          <path id="Trazado_11" data-name="Trazado 11" d="M377.59,26.487l5.089,11.828c-.378.825-.722,1.685-1.169,2.51a5.876,5.876,0,0,1-4.161,3.4l1.789,3.782c3.232-.241,5.363-1.995,7.53-7.565,1.857-4.641,3.541-9.318,5.157-13.96l1.788-.447c.1-1.341.138-2.407.138-3.954a48.77,48.77,0,0,1-5.261-.241c-1.1,3.611-1.926,6.739-3.507,10.9l-4.058-10.9c-1.169.137-3.713.241-5.3.241,0,1.444.069,2.647.138,3.954.619.138,1.2.31,1.822.447" transform="translate(-231.363 -13.455)" fill="#fff"/>
          <path id="Trazado_12" data-name="Trazado 12" d="M92.735,95.841,95,96.36v16.481l-2.261.515v3.886h9.834v-3.886l-2.312-.515V96.36l2.312-.3V92.176H92.735Z" transform="translate(-57.119 -56.775)" fill="#fff"/>
          <path id="Trazado_13" data-name="Trazado 13" d="M145.006,121.047c0-4.848-2.372-8.459-7.6-8.459a7.894,7.894,0,0,0-4.918,1.616v-1.512l-6.739.24.137,3.954,1.547.447v8.08l-1.513.516-.172,3.886h6.739V122.7c0-3.473.963-5.364,3.611-5.364,3.026,0,3.645,2.407,3.645,4.918,0,1.031-.069,2.2-.1,3.163l-1.272.516-.172,3.886s5.6.172,7.53.515c.137-1.512.24-3.885.24-3.885l-1.1-.447s.138-3.4.138-4.951" transform="translate(-77.454 -69.347)" fill="#fff"/>
          <path id="Trazado_14" data-name="Trazado 14" d="M189.189,119.154c-1.307,0-2.143-.86-2.143-2.407v-6.132c1.582-.035,4.711-.058,4.711-.058l.137-4.023h-4.848V102.2l-4.816.137v4.195h-2.04v3.784l2,.03V118c0,3.576,1.88,5.628,5.421,5.628,2.064,0,4.5-.585,5.4-1.341a22.826,22.826,0,0,1-1.066-3.748,8.58,8.58,0,0,1-2.751.619" transform="translate(-110.985 -62.95)" fill="#fff"/>
          <path id="Trazado_15" data-name="Trazado 15" d="M223.045,112.588a8.426,8.426,0,0,0-8.768,8.665c0,5.3,3.438,8.768,8.768,8.768a9.976,9.976,0,0,0,7.462-2.716,18.053,18.053,0,0,1-2.476-3.095,7.124,7.124,0,0,1-4.573,1.444,4.077,4.077,0,0,1-4.126-2.682H230.85a7.5,7.5,0,0,0,.24-1.892c0-5.054-3.335-8.492-8.046-8.492m-3.782,6.911c0-.86,1-2.51,3.748-2.51,2.166,0,3.232,1.375,3.3,2.51Z" transform="translate(-131.981 -69.347)" fill="#fff"/>
          <path id="Trazado_16" data-name="Trazado 16" d="M277.564,114.582c-1.031-1.272-2.682-1.994-5.089-1.994a8.717,8.717,0,0,0,0,17.433,6.01,6.01,0,0,0,5.089-2.1v1.616c0,2.854-.722,5.158-4.332,5.158a8.681,8.681,0,0,1-3.267-.516l-.55-2.2c-.962.069-2.544.1-4.057.1.034.757.034,1.513.034,2.27s0,1.512-.034,2.269c1.65,1.788,5.02,2.544,7.874,2.544,6.361,0,9.181-3.369,9.181-9.9V117.333c.515-.137,1.031-.31,1.513-.447.1-1.478.137-2.407.137-3.954-3.3-.034-4.883-.1-6.5-.241Zm-1.135,9.456a3.889,3.889,0,0,1-3.129,1.375c-2.339,0-4.126-1.238-4.126-4.057a4.182,4.182,0,0,1,7.117-2.957,4.632,4.632,0,0,1,1,3.025,4.048,4.048,0,0,1-.86,2.614" transform="translate(-162.532 -69.347)" fill="#fff"/>
          <path id="Trazado_17" data-name="Trazado 17" d="M332.835,112.588a4.912,4.912,0,0,0-4.366,2.1v-1.994l-6.6.24.138,3.954s1.032.31,1.548.447v8.08l-1.513.516-.172,3.886h9.043l-.172-3.886-2.029-.516v-5.742c0-1.41.86-2.029,2.167-2.029.172.653.309,1.307.481,1.96,1.238-.069,2.27-.1,3.576-.1-.034-1.1-.069-2.167-.069-3.266s.035-2.2.069-3.266a5.291,5.291,0,0,0-2.1-.378" transform="translate(-198.248 -69.347)" fill="#fff"/>
          <path id="Trazado_18" data-name="Trazado 18" d="M365.056,93.428a3.079,3.079,0,1,0,0,6.155,3.155,3.155,0,0,0,3.129-3.095,3.1,3.1,0,0,0-3.129-3.06" transform="translate(-222.902 -57.546)" fill="#fff"/>
          <path id="Trazado_19" data-name="Trazado 19" d="M366.629,125.578V112.856c-1.582.137-4.47.24-6.7.24,0,1.547.068,2.614.137,3.954.516.137,1.032.31,1.513.447v8.08l-1.479.515a35.461,35.461,0,0,0-.172,3.886c1.41-.068,2.819-.1,4.195-.1q2.115,0,4.229.1a35.644,35.644,0,0,0-.172-3.886Z" transform="translate(-221.69 -69.512)" fill="#fff"/>
          <path id="Trazado_20" data-name="Trazado 20" d="M392.941,119.154c-1.307,0-1.822-.86-1.822-2.407V110.8c1.581-.035,3.129-.138,4.711-.241a39.333,39.333,0,0,1,.137-4.023h-4.848V102.2c-2.27.1-3.817.137-4.951.137v4.195h-1.891v4.057c.619.069,1.272.137,1.891.172v7.462c0,3.576,1.651,5.4,5.192,5.4,2.063,0,4.5-.585,5.4-1.341a22.823,22.823,0,0,1-1.066-3.748,8.58,8.58,0,0,1-2.751.619" transform="translate(-236.689 -62.95)" fill="#fff"/>
          <path id="Trazado_21" data-name="Trazado 21" d="M430,112.856c-1.1,3.611-1.926,6.739-3.507,10.9l-4.058-10.9c-1.169.137-3.713.24-5.295.24,0,1.444.068,2.648.138,3.954.619.137,1.2.31,1.822.447l5.088,11.828c-.378.825-.722,1.685-1.169,2.51a5.875,5.875,0,0,1-4.161,3.4l1.788,3.782c3.232-.24,5.363-1.994,7.53-7.564,1.857-4.642,3.541-9.319,5.157-13.96l1.788-.447c.1-1.341.138-2.407.138-3.954a48.875,48.875,0,0,1-5.261-.24" transform="translate(-256.928 -69.512)" fill="#fff"/>
          <path id="Trazado_22" data-name="Trazado 22" d="M10.988,104.519s-5.649,1.231-4.922,5.314c.615,2.181,5.09,3.523,7.83.559a17.59,17.59,0,0,1,2.852,2.908s-2.573,3.524-8.557,3.524S.809,110.9.809,109.273s.391-5.257,6.1-7.886c3.412-1.454,6.32-2.629,5.369-4.81S7.3,95.514,6.682,98.7C5,97.3,3.214,95.57,3.214,95.57s1.9-4.7,6.6-4.81,7.271,3.076,7.215,6.432a7.012,7.012,0,0,1-2.517,5.2l3.02,2.909,2.125-4.474H24.02v4.027H22.174L20.608,108.1l4.25,4.363L21.951,115.2Z" transform="translate(-0.498 -55.901)" fill="#fff"/>
          <path id="Trazado_23" data-name="Trazado 23" d="M.042,192.308l.631-1.019c.048-.073.1-.121.17-.121a.323.323,0,0,1,.194.073,7.43,7.43,0,0,0,4.855,1.8c2.4,0,3.787-1.214,3.787-3.011,0-1.529-1.335-2.258-4.3-2.962-3.714-.9-5.171-2.549-5.243-5.025C.09,179.393,2.494,177.378,5.8,177.4a6.887,6.887,0,0,1,4.782,1.627.262.262,0,0,1,.073.364l-.534,1.116a.182.182,0,0,1-.194.121.262.262,0,0,1-.17-.048,6.124,6.124,0,0,0-4.078-1.505c-2.185,0-3.811,1.238-3.811,2.889,0,1.6.8,2.427,4.345,3.35,3.593.923,5.1,2.185,5.171,4.443.1,2.986-1.772,4.976-5.608,4.952a7.947,7.947,0,0,1-5.68-2.039.289.289,0,0,1-.048-.364" transform="translate(0 -109.268)" fill="#fff"/>
          <path id="Trazado_24" data-name="Trazado 24" d="M36.3,196.9a2.014,2.014,0,0,0,1.165-.534.324.324,0,0,1,.17-.073.183.183,0,0,1,.17.1l.656.874a.234.234,0,0,1-.049.34,3.486,3.486,0,0,1-2.185.85c-1.845,0-2.792-1.384-2.767-3.957v-5.656H31.637a.224.224,0,0,1-.243-.219v-.923a.229.229,0,0,1,.243-.242h1.845v-3.738a.224.224,0,0,1,.219-.243h1.116a.217.217,0,0,1,.219.219v3.763H37.8a.229.229,0,0,1,.243.242v.923a.224.224,0,0,1-.243.219H35.035v5.51c0,1.967.461,2.549,1.262,2.549" transform="translate(-19.337 -113.006)" fill="#fff"/>
          <path id="Trazado_25" data-name="Trazado 25" d="M61.226,193.665a.282.282,0,0,1,.267-.242h.777a.224.224,0,0,1,.243.218v10.317a.23.23,0,0,1-.243.243h-.8a.24.24,0,0,1-.243-.219l-.291-1.8a4.838,4.838,0,0,1-4.321,2.258,5.623,5.623,0,0,1,0-11.24,4.861,4.861,0,0,1,4.345,2.234Zm-4.467,9.225a4.08,4.08,0,1,0,0-8.157,4.078,4.078,0,0,0,0,8.157" transform="translate(-31.521 -119.001)" fill="#fff"/>
          <path id="Trazado_26" data-name="Trazado 26" d="M88.087,193.665a.224.224,0,0,1,.243-.218h.728a.264.264,0,0,1,.267.218l.292,1.918A4.092,4.092,0,0,1,93.5,193.2c2.573,0,4.321,1.457,4.321,4.807v5.972a.218.218,0,0,1-.219.218H96.487a.224.224,0,0,1-.243-.218v-6c0-2.4-1.189-3.253-2.913-3.253-2.112,0-3.568,1.967-3.666,4.273v4.952a.229.229,0,0,1-.243.243H88.33a.224.224,0,0,1-.243-.218Z" transform="translate(-54.256 -119.001)" fill="#fff"/>
          <path id="Trazado_27" data-name="Trazado 27" d="M118.55,188.34a5.232,5.232,0,0,1,5.438-5.608,4.82,4.82,0,0,1,4.321,2.234v-8.545a.224.224,0,0,1,.243-.219h1.092a.224.224,0,0,1,.243.219v17.09a.224.224,0,0,1-.243.218h-.728a.284.284,0,0,1-.267-.218l-.316-1.8a4.879,4.879,0,0,1-4.345,2.258,5.252,5.252,0,0,1-5.438-5.632m5.584-4.078a4.078,4.078,0,0,0,0,8.157,4.08,4.08,0,1,0,0-8.157" transform="translate(-73.019 -108.529)" fill="#fff"/>
          <path id="Trazado_28" data-name="Trazado 28" d="M163.361,193.665a.282.282,0,0,1,.267-.242h.777a.224.224,0,0,1,.243.218v10.317a.23.23,0,0,1-.243.243h-.8a.239.239,0,0,1-.242-.219l-.292-1.8a4.838,4.838,0,0,1-4.321,2.258,5.623,5.623,0,0,1,0-11.24,4.861,4.861,0,0,1,4.345,2.234Zm-4.467,9.225a4.08,4.08,0,1,0,0-8.157,4.078,4.078,0,0,0,0,8.157" transform="translate(-94.429 -119.001)" fill="#fff"/>
          <path id="Trazado_29" data-name="Trazado 29" d="M194.178,194.8a2.7,2.7,0,0,0-2.379,1.893v7.332a.224.224,0,0,1-.243.218h-1.092a.224.224,0,0,1-.243-.218V193.705a.224.224,0,0,1,.243-.219h.729a.264.264,0,0,1,.267.219l.17.923a3.76,3.76,0,0,1,2.841-1.36,6.779,6.779,0,0,1,1.747.267.243.243,0,0,1,.146.316l-.316,1.141a.2.2,0,0,1-.17.171c-.049,0-.073-.025-.1-.025a4.542,4.542,0,0,0-1.6-.34" transform="translate(-117.164 -119.04)" fill="#fff"/>
          <path id="Trazado_30" data-name="Trazado 30" d="M207.853,188.34a5.232,5.232,0,0,1,5.438-5.608,4.82,4.82,0,0,1,4.321,2.234v-8.545a.224.224,0,0,1,.242-.219h1.092a.224.224,0,0,1,.243.219v17.09a.224.224,0,0,1-.243.218h-.728a.284.284,0,0,1-.267-.218l-.316-1.8a4.879,4.879,0,0,1-4.345,2.258,5.252,5.252,0,0,1-5.438-5.632m5.584-4.078a4.078,4.078,0,0,0,0,8.157,4.08,4.08,0,1,0,0-8.157" transform="translate(-128.024 -108.529)" fill="#fff"/>
        </g>
      </g>
    </g>
  </g>
</svg>
