<svg xmlns="http://www.w3.org/2000/svg" width="32.674" height="32.674" viewBox="0 0 32.674 32.674">
  <path id="Icon_material-phone" data-name="Icon material-phone" d="M11.071,18.641A27.5,27.5,0,0,0,23.033,30.6l3.993-3.993a1.8,1.8,0,0,1,1.852-.436,20.706,20.706,0,0,0,6.48,1.035,1.821,1.821,0,0,1,1.815,1.815v6.335a1.821,1.821,0,0,1-1.815,1.815A30.856,30.856,0,0,1,4.5,6.315,1.821,1.821,0,0,1,6.315,4.5h6.353a1.821,1.821,0,0,1,1.815,1.815,20.622,20.622,0,0,0,1.035,6.48,1.822,1.822,0,0,1-.454,1.852l-3.993,3.993Z" transform="translate(-4.5 -4.5)" fill="#374fa7"/>
</svg>
